{"asset":{"version":"2.0","generator":"Unity 2022.3.37f1 glTFast 6.12.1"},"nodes":[{"name":"BRACCIOLO A 20","mesh":0,"rotation":[-0.7071068,0,0,0.7071067],"scale":[100,100,100]},{"name":"PIEDE A 20","mesh":1,"rotation":[-0.7071068,0,0,0.7071067],"scale":[100,100,100]},{"name":"A","children":[0,1]},{"name":"BRACCIOLO B 13","mesh":2,"rotation":[-0.7071068,0,0,0.7071067],"scale":[100,100,100]},{"name":"PIEDE B 13","mesh":3,"rotation":[-0.7071068,0,0,0.7071067],"scale":[100,100,100]},{"name":"B","children":[3,4]},{"name":"POGGIA RENI","mesh":4,"rotation":[-0.7071068,0,0,0.7071067],"scale":[100,100,100]},{"name":"SCHIENA","mesh":5,"rotation":[-0.7071068,0,0,0.7071067],"scale":[100,100,100]},{"name":"SEDUTA","mesh":6,"rotation":[-0.7071068,0,0,0.7071067],"scale":[100,100,100]},{"name":"SPALLIERA","mesh":7,"rotation":[-0.7071068,0,0,0.7071067],"scale":[100,100,100]},{"name":"CLOSE","children":[6,7,8,9]},{"name":"BASE_LETTO","mesh":8,"rotation":[-0.7071068,0,0,0.7071067],"scale":[100,100,100]},{"name":"CUSCINO","mesh":9,"rotation":[-0.7071068,0,0,0.7071067],"scale":[100,100,100]},{"name":"LENZUOLA","mesh":10,"rotation":[-0.7071068,0,0,0.7071067],"scale":[100,100,100]},{"name":"PIEDE LETTO","mesh":11,"rotation":[-0.7071068,0,0,0.7071067],"scale":[100,100,100]},{"name":"OPEN","children":[11,12,13,14]},{"name":"PIEDINI","mesh":12,"rotation":[-0.7071068,0,0,0.7071067],"scale":[100,100,100]},{"name":"SCOCCA","mesh":13,"rotation":[-0.7071068,0,0,0.7071067],"scale":[100,100,100]},{"name":"SPONDA","mesh":14,"rotation":[-0.7071068,0,0,0.7071067],"scale":[100,100,100]},{"name":"FONDO","mesh":15,"rotation":[-0.7071068,0,0,0.7071067],"scale":[100,100,100]},{"name":"200P_AB_220P_AB","children":[2,5,10,15,16,17,18,19]}],"buffers":[{"uri":"200P_AB_220P_AB.bin","byteLength":11461788}],"bufferViews":[{"buffer":0,"byteLength":445056,"target":34963},{"buffer":0,"byteLength":1584,"byteOffset":445056,"target":34963},{"buffer":0,"byteLength":445056,"byteOffset":446640,"target":34963},{"buffer":0,"byteLength":1584,"byteOffset":891696,"target":34963},{"buffer":0,"byteLength":118272,"byteOffset":893280,"target":34963},{"buffer":0,"byteLength":145920,"byteOffset":1011552,"target":34963},{"buffer":0,"byteLength":161664,"byteOffset":1157472,"target":34963},{"buffer":0,"byteLength":281088,"byteOffset":1319136,"target":34963},{"buffer":0,"byteLength":114912,"byteOffset":1600224,"target":34963},{"buffer":0,"byteLength":119148,"byteOffset":1715136,"target":34963},{"buffer":0,"byteLength":189792,"byteOffset":1834284,"target":34963},{"buffer":0,"byteLength":4176,"byteOffset":2024076,"target":34963},{"buffer":0,"byteLength":1536,"byteOffset":2028252,"target":34963},{"buffer":0,"byteLength":76800,"byteOffset":2029788,"target":34963},{"buffer":0,"byteLength":27648,"byteOffset":2106588,"target":34963},{"buffer":0,"byteLength":528,"byteOffset":2134236,"target":34963},{"buffer":0,"byteLength":1873584,"byteOffset":2134764,"byteStride":48,"target":34962},{"buffer":0,"byteLength":25344,"byteOffset":4008348,"byteStride":48,"target":34962},{"buffer":0,"byteLength":1884864,"byteOffset":4033692,"byteStride":48,"target":34962},{"buffer":0,"byteLength":25344,"byteOffset":5918556,"byteStride":48,"target":34962},{"buffer":0,"byteLength":499152,"byteOffset":5943900,"byteStride":48,"target":34962},{"buffer":0,"byteLength":626448,"byteOffset":6443052,"byteStride":48,"target":34962},{"buffer":0,"byteLength":1199232,"byteOffset":7069500,"byteStride":48,"target":34962},{"buffer":0,"byteLength":504096,"byteOffset":8268732,"byteStride":48,"target":34962},{"buffer":0,"byteLength":510816,"byteOffset":8772828,"byteStride":48,"target":34962},{"buffer":0,"byteLength":780336,"byteOffset":9283644,"byteStride":48,"target":34962},{"buffer":0,"byteLength":31680,"byteOffset":10063980,"byteStride":48,"target":34962},{"buffer":0,"byteLength":9792,"byteOffset":10095660,"byteStride":48,"target":34962},{"buffer":0,"byteLength":323904,"byteOffset":10105452,"byteStride":48,"target":34962},{"buffer":0,"byteLength":122400,"byteOffset":10429356,"byteStride":48,"target":34962},{"buffer":0,"byteLength":9216,"byteOffset":10551756,"byteStride":48,"target":34962},{"buffer":0,"byteLength":900816,"byteOffset":10560972,"byteStride":56,"target":34962}],"accessors":[{"bufferView":16,"componentType":5126,"count":39033,"type":"VEC3","max":[0.00802415051,0.00470856,0.00592925],"min":[-0.00802415051,-0.00470856,0.000478368718]},{"bufferView":16,"componentType":5126,"count":39033,"type":"VEC3","byteOffset":12},{"bufferView":16,"componentType":5126,"count":39033,"type":"VEC4","byteOffset":24},{"bufferView":16,"componentType":5126,"count":39033,"type":"VEC2","byteOffset":40},{"bufferView":0,"componentType":5123,"count":222528,"type":"SCALAR"},{"bufferView":17,"componentType":5126,"count":528,"type":"VEC3","max":[0.007534258,0.0043850923,0.0005],"min":[-0.007534258,-0.0043850923,-1.17172021E-07]},{"bufferView":17,"componentType":5126,"count":528,"type":"VEC3","byteOffset":12},{"bufferView":17,"componentType":5126,"count":528,"type":"VEC4","byteOffset":24},{"bufferView":17,"componentType":5126,"count":528,"type":"VEC2","byteOffset":40},{"bufferView":1,"componentType":5123,"count":792,"type":"SCALAR"},{"bufferView":18,"componentType":5126,"count":39268,"type":"VEC3","max":[0.00731591973,0.00470856,0.00592953153],"min":[-0.007315919,-0.00470856,0.000483343378]},{"bufferView":18,"componentType":5126,"count":39268,"type":"VEC3","byteOffset":12},{"bufferView":18,"componentType":5126,"count":39268,"type":"VEC4","byteOffset":24},{"bufferView":18,"componentType":5126,"count":39268,"type":"VEC2","byteOffset":40},{"bufferView":2,"componentType":5123,"count":222528,"type":"SCALAR"},{"bufferView":19,"componentType":5126,"count":528,"type":"VEC3","max":[0.006934258,0.0043850923,0.0005],"min":[-0.006934257,-0.0043850923,-1.17172021E-07]},{"bufferView":19,"componentType":5126,"count":528,"type":"VEC3","byteOffset":12},{"bufferView":19,"componentType":5126,"count":528,"type":"VEC4","byteOffset":24},{"bufferView":19,"componentType":5126,"count":528,"type":"VEC2","byteOffset":40},{"bufferView":3,"componentType":5123,"count":792,"type":"SCALAR"},{"bufferView":20,"componentType":5126,"count":10399,"type":"VEC3","max":[0.00606584735,0.0009046498,0.006956578],"min":[-0.00606584735,-1.26634841E-05,0.004929279]},{"bufferView":20,"componentType":5126,"count":10399,"type":"VEC3","byteOffset":12},{"bufferView":20,"componentType":5126,"count":10399,"type":"VEC4","byteOffset":24},{"bufferView":20,"componentType":5126,"count":10399,"type":"VEC2","byteOffset":40},{"bufferView":4,"componentType":5123,"count":59136,"type":"SCALAR"},{"bufferView":21,"componentType":5126,"count":13051,"type":"VEC3","max":[0.006,0.004198674,0.008583437],"min":[-0.006,0.002398599,0.004590663]},{"bufferView":21,"componentType":5126,"count":13051,"type":"VEC3","byteOffset":12},{"bufferView":21,"componentType":5126,"count":13051,"type":"VEC4","byteOffset":24},{"bufferView":21,"componentType":5126,"count":13051,"type":"VEC2","byteOffset":40},{"bufferView":5,"componentType":5123,"count":72960,"type":"SCALAR"},{"bufferView":31,"componentType":5126,"count":16086,"type":"VEC3","max":[0.00604979135,0.00423062732,0.005215686],"min":[-0.00604979135,-0.00490142265,0.002670396]},{"bufferView":31,"componentType":5126,"count":16086,"type":"VEC3","byteOffset":12},{"bufferView":31,"componentType":5126,"count":16086,"type":"VEC4","byteOffset":24},{"bufferView":31,"componentType":5126,"count":16086,"type":"VEC2","byteOffset":40},{"bufferView":31,"componentType":5126,"count":16086,"type":"VEC2","byteOffset":48},{"bufferView":6,"componentType":5123,"count":80832,"type":"SCALAR"},{"bufferView":22,"componentType":5126,"count":24984,"type":"VEC3","max":[0.0060656867,0.00360737345,0.009810999],"min":[-0.0060656867,0.0007494532,0.00453098863]},{"bufferView":22,"componentType":5126,"count":24984,"type":"VEC3","byteOffset":12},{"bufferView":22,"componentType":5126,"count":24984,"type":"VEC4","byteOffset":24},{"bufferView":22,"componentType":5126,"count":24984,"type":"VEC2","byteOffset":40},{"bufferView":7,"componentType":5123,"count":140544,"type":"SCALAR"},{"bufferView":23,"componentType":5126,"count":10502,"type":"VEC3","max":[0.004428689,-0.009707615,0.001662939],"min":[-0.004428689,-0.01376541,0.000115151168]},{"bufferView":23,"componentType":5126,"count":10502,"type":"VEC3","byteOffset":12},{"bufferView":23,"componentType":5126,"count":10502,"type":"VEC4","byteOffset":24},{"bufferView":23,"componentType":5126,"count":10502,"type":"VEC2","byteOffset":40},{"bufferView":8,"componentType":5123,"count":57456,"type":"SCALAR"},{"bufferView":24,"componentType":5126,"count":10642,"type":"VEC3","max":[0.003656629,0.003541077,0.00747869676],"min":[-0.003470553,-0.0004589226,0.00594281638]},{"bufferView":24,"componentType":5126,"count":10642,"type":"VEC3","byteOffset":12},{"bufferView":24,"componentType":5126,"count":10642,"type":"VEC4","byteOffset":24},{"bufferView":24,"componentType":5126,"count":10642,"type":"VEC2","byteOffset":40},{"bufferView":9,"componentType":5123,"count":59574,"type":"SCALAR"},{"bufferView":25,"componentType":5126,"count":16257,"type":"VEC3","max":[0.005087585,0.003448335,0.006026094],"min":[-0.005087585,-0.0165626481,0.0009955466]},{"bufferView":25,"componentType":5126,"count":16257,"type":"VEC3","byteOffset":12},{"bufferView":25,"componentType":5126,"count":16257,"type":"VEC4","byteOffset":24},{"bufferView":25,"componentType":5126,"count":16257,"type":"VEC2","byteOffset":40},{"bufferView":10,"componentType":5123,"count":94896,"type":"SCALAR"},{"bufferView":26,"componentType":5126,"count":660,"type":"VEC3","max":[0.004035713,-0.0131029021,0.000636925455],"min":[-0.004035713,-0.0139044151,-3.755733E-06]},{"bufferView":26,"componentType":5126,"count":660,"type":"VEC3","byteOffset":12},{"bufferView":26,"componentType":5126,"count":660,"type":"VEC4","byteOffset":24},{"bufferView":26,"componentType":5126,"count":660,"type":"VEC2","byteOffset":40},{"bufferView":11,"componentType":5123,"count":2088,"type":"SCALAR"},{"bufferView":27,"componentType":5126,"count":204,"type":"VEC3","max":[0.00545817,0.00370000023,0.0008000091],"min":[-0.00545817,-0.00370000023,9.895302E-09]},{"bufferView":27,"componentType":5126,"count":204,"type":"VEC3","byteOffset":12},{"bufferView":27,"componentType":5126,"count":204,"type":"VEC4","byteOffset":24},{"bufferView":27,"componentType":5126,"count":204,"type":"VEC2","byteOffset":40},{"bufferView":12,"componentType":5123,"count":768,"type":"SCALAR"},{"bufferView":28,"componentType":5126,"count":6748,"type":"VEC3","max":[0.006023059,0.00469988957,0.007000001],"min":[-0.006023059,0.004200112,0.0004999996]},{"bufferView":28,"componentType":5126,"count":6748,"type":"VEC3","byteOffset":12},{"bufferView":28,"componentType":5126,"count":6748,"type":"VEC4","byteOffset":24},{"bufferView":28,"componentType":5126,"count":6748,"type":"VEC2","byteOffset":40},{"bufferView":13,"componentType":5123,"count":38400,"type":"SCALAR"},{"bufferView":29,"componentType":5126,"count":2550,"type":"VEC3","max":[0.0061166645,-0.00426126737,0.00270564319],"min":[-0.006036664,-0.00475174468,0.0004999994]},{"bufferView":29,"componentType":5126,"count":2550,"type":"VEC3","byteOffset":12},{"bufferView":29,"componentType":5126,"count":2550,"type":"VEC4","byteOffset":24},{"bufferView":29,"componentType":5126,"count":2550,"type":"VEC2","byteOffset":40},{"bufferView":14,"componentType":5123,"count":13824,"type":"SCALAR"},{"bufferView":30,"componentType":5126,"count":192,"type":"VEC3","max":[0.00599999959,0.00420138054,0.00267237355],"min":[-0.00599999959,-0.004268136,0.000499999849]},{"bufferView":30,"componentType":5126,"count":192,"type":"VEC3","byteOffset":12},{"bufferView":30,"componentType":5126,"count":192,"type":"VEC4","byteOffset":24},{"bufferView":30,"componentType":5126,"count":192,"type":"VEC2","byteOffset":40},{"bufferView":15,"componentType":5123,"count":264,"type":"SCALAR"}],"materials":[{"name":"UV-CHECK.001","pbrMetallicRoughness":{"baseColorFactor":[0.8,0.8,0.8,1],"metallicFactor":0,"roughnessFactor":0.3}},{"name":"UV-CHECK","pbrMetallicRoughness":{"baseColorFactor":[0.8,0.8,0.8,1],"metallicFactor":0,"roughnessFactor":0.3}}],"meshes":[{"name":"BRACCIOLO A 20","primitives":[{"attributes":{"POSITION":0,"NORMAL":1,"TANGENT":2,"TEXCOORD_0":3},"indices":4,"material":0}]},{"name":"PIEDE A 20","primitives":[{"attributes":{"POSITION":5,"NORMAL":6,"TANGENT":7,"TEXCOORD_0":8},"indices":9,"material":0}]},{"name":"BRACCIOLO B 13","primitives":[{"attributes":{"POSITION":10,"NORMAL":11,"TANGENT":12,"TEXCOORD_0":13},"indices":14,"material":0}]},{"name":"PIEDE B 13","primitives":[{"attributes":{"POSITION":15,"NORMAL":16,"TANGENT":17,"TEXCOORD_0":18},"indices":19,"material":0}]},{"name":"POGGIA RENI","primitives":[{"attributes":{"POSITION":20,"NORMAL":21,"TANGENT":22,"TEXCOORD_0":23},"indices":24,"material":1}]},{"name":"SCHIENA","primitives":[{"attributes":{"POSITION":25,"NORMAL":26,"TANGENT":27,"TEXCOORD_0":28},"indices":29,"material":1}]},{"name":"SEDUTA","primitives":[{"attributes":{"POSITION":30,"NORMAL":31,"TANGENT":32,"TEXCOORD_0":33,"TEXCOORD_1":34},"indices":35,"material":1}]},{"name":"SPALLIERA","primitives":[{"attributes":{"POSITION":36,"NORMAL":37,"TANGENT":38,"TEXCOORD_0":39},"indices":40,"material":1}]},{"name":"BASE_LETTO","primitives":[{"attributes":{"POSITION":41,"NORMAL":42,"TANGENT":43,"TEXCOORD_0":44},"indices":45,"material":1}]},{"name":"CUSCINO","primitives":[{"attributes":{"POSITION":46,"NORMAL":47,"TANGENT":48,"TEXCOORD_0":49},"indices":50,"material":1}]},{"name":"LENZUOLA","primitives":[{"attributes":{"POSITION":51,"NORMAL":52,"TANGENT":53,"TEXCOORD_0":54},"indices":55,"material":1}]},{"name":"PIEDE LETTO","primitives":[{"attributes":{"POSITION":56,"NORMAL":57,"TANGENT":58,"TEXCOORD_0":59},"indices":60,"material":1}]},{"name":"PIEDINI","primitives":[{"attributes":{"POSITION":61,"NORMAL":62,"TANGENT":63,"TEXCOORD_0":64},"indices":65,"material":1}]},{"name":"SCOCCA","primitives":[{"attributes":{"POSITION":66,"NORMAL":67,"TANGENT":68,"TEXCOORD_0":69},"indices":70,"material":1}]},{"name":"SPONDA","primitives":[{"attributes":{"POSITION":71,"NORMAL":72,"TANGENT":73,"TEXCOORD_0":74},"indices":75,"material":1}]},{"name":"FONDO","primitives":[{"attributes":{"POSITION":76,"NORMAL":77,"TANGENT":78,"TEXCOORD_0":79},"indices":80,"material":1}]}],"scene":0,"scenes":[{"name":"200P_AB_220P_AB","nodes":[20]}]}